<svg width="138" height="138" viewBox="0 0 138 138" fill="none" xmlns="http://www.w3.org/2000/svg">
<rect width="137.66" height="137.676" rx="50" fill="black" fill-opacity="0.7"/>
<path d="M60.3633 87.9971C60.873 87.9971 61.2861 87.8477 61.6025 87.5488C61.9189 87.25 62.0684 86.8633 62.0508 86.3887L61.207 57.332C61.207 56.8398 61.0488 56.4531 60.7324 56.1719C60.416 55.8906 60.0117 55.75 59.5195 55.75C58.9922 55.75 58.5703 55.8994 58.2539 56.1982C57.9551 56.4795 57.8145 56.8662 57.832 57.3584L58.623 86.3887C58.6582 86.8809 58.8252 87.2764 59.124 87.5752C59.4404 87.8564 59.8535 87.9971 60.3633 87.9971ZM68.4053 87.9971C68.9326 87.9971 69.3545 87.8564 69.6709 87.5752C70.0049 87.2764 70.1719 86.8809 70.1719 86.3887V57.3584C70.1719 56.8662 70.0049 56.4795 69.6709 56.1982C69.3545 55.8994 68.9326 55.75 68.4053 55.75C67.8955 55.75 67.4736 55.8994 67.1396 56.1982C66.8232 56.4795 66.665 56.8662 66.665 57.3584V86.3887C66.665 86.8809 66.8232 87.2764 67.1396 87.5752C67.4736 87.8564 67.8955 87.9971 68.4053 87.9971ZM76.4736 87.9971C76.9834 87.9971 77.3877 87.8564 77.6865 87.5752C78.0029 87.2939 78.1699 86.8984 78.1875 86.3887L78.9785 57.3584C78.9961 56.8662 78.8467 56.4795 78.5303 56.1982C78.2314 55.8994 77.8184 55.75 77.291 55.75C76.8164 55.75 76.4209 55.8906 76.1045 56.1719C75.7881 56.4531 75.6211 56.8486 75.6035 57.3584L74.7861 86.3887C74.7686 86.8809 74.9092 87.2764 75.208 87.5752C75.5244 87.8564 75.9463 87.9971 76.4736 87.9971ZM56.8301 49.3428V43.4365C56.8301 41.5381 57.4102 40.0439 58.5703 38.9541C59.748 37.8467 61.3477 37.293 63.3691 37.293H73.3887C75.4102 37.293 77.001 37.8467 78.1611 38.9541C79.3389 40.0439 79.9277 41.5381 79.9277 43.4365V49.3428H75.7354V43.7002C75.7354 42.9619 75.4893 42.3643 74.9971 41.9072C74.5225 41.4502 73.8896 41.2217 73.0986 41.2217H63.6592C62.8682 41.2217 62.2266 41.4502 61.7344 41.9072C61.2598 42.3643 61.0225 42.9619 61.0225 43.7002V49.3428H56.8301ZM44.8594 51.4521C44.332 51.4521 43.8662 51.2588 43.4619 50.8721C43.0752 50.4678 42.8818 49.9932 42.8818 49.4482C42.8818 48.9209 43.0752 48.4639 43.4619 48.0771C43.8662 47.6729 44.332 47.4707 44.8594 47.4707H91.9775C92.5049 47.4707 92.9619 47.6641 93.3486 48.0508C93.7354 48.4375 93.9287 48.9033 93.9287 49.4482C93.9287 49.9932 93.7354 50.4678 93.3486 50.8721C92.9795 51.2588 92.5225 51.4521 91.9775 51.4521H44.8594ZM56.3291 96.0127C54.4307 96.0127 52.8926 95.4502 51.7148 94.3252C50.5547 93.2178 49.9307 91.7148 49.8428 89.8164L47.9707 50.8984H88.8398L86.9941 89.79C86.9062 91.6885 86.2734 93.2002 85.0957 94.3252C83.918 95.4502 82.3887 96.0127 80.5078 96.0127H56.3291Z" fill="white"/>
</svg>
